#!OML:ASF F:\VICON\USERDATA\INSTALL\rory3\rory3.ASF
:FULLY-SPECIFIED
:DEGREES
99
root 0.2482822258621553 17.753746659175846 41.86177553534311 -2.372034041278334 -0.5943126243602319 2.0261468267990232
lfemur 5.854074360799427 -3.0243967323327787 -27.451283615977076
ltibia 16.367344194285423
lfoot -14.551014677422948 3.410852777838441
ltoes 2.8013388612832704
rfemur -27.85133506712946 3.2315826583446574 18.581840961965405
rtibia 23.195035792078848
rfoot -9.95068513020887 -14.682399386188814
rtoes 0.8732566324662092
lowerback 10.319690446970286 -0.17358939336116208 -3.1019145196180276
upperback 1.0007014953411615 -0.6164059733707097 0.9311723486015312
thorax -4.629795188514518 -0.22057724617278618 2.852298940018285
lowerneck -17.146794043761354 -2.814630691523111 -3.3574302644625327
upperneck 19.018331144652805 -3.6431036977374287 2.3658164856799226
head 8.813001273600765 -1.676927424774702 0.8037715834325406
lclavicle -1.953240616916867e-15 9.067692338660013e-16
lhumerus -25.04538710335299 -3.6753333212229453 83.48026732389101
lradius 27.10549398078954
lwrist 6.401062658731392
lhand -27.221080751080034 23.382929655675056
lfingers 7.12502
lthumb -0.6440760624661811 53.31414716187895
rclavicle -1.9532406170708195e-15 9.067692337246228e-16
rhumerus -29.287912299264004 -19.188315071685757 -78.08493506502215
rradius 24.94770624440042
rwrist 2.55658162236528
rhand -18.00385634211161 22.281483345523046
rfingers 7.12502
rthumb 8.151307829852078 -7.7926108501412905
100
root 0.19834533179452624 17.75249197608548 42.29032773721963 -1.8285709473024816 0.09734824996822722 2.111405830258359
lfemur 9.097720687770469 -3.071977141896776 -27.365569716109086
ltibia 13.68531750454228
lfoot -13.095693532686713 1.7739515714155953
ltoes 0.22189559915867552
rfemur -26.73410064621237 5.961310545596897 17.096432089141494
rtibia 15.098562242648615
rfoot -12.95821381233532 -16.15675180573072
rtoes -0.6798730888075428
lowerback 10.055219798179424 -0.4574884751611109 -3.277687875124352
upperback 0.9432443060798805 -0.9948586141035101 1.017310352629816
thorax -4.5400025447706165 -0.4113412214493749 3.0464216226287943
lowerneck -17.21050014918758 -2.762795160822831 -3.3013085746593926
upperneck 19.0426441862992 -3.5589560221357193 2.293366646595933
head 8.824848565802792 -1.6475984982341136 0.7919865549671586
lclavicle -1.953240616912721e-15 9.067692338687057e-16
lhumerus -23.571352826283643 -4.616287940548698 83.36968480445942
lradius 28.219388717651917
lwrist 6.780501768103981
lhand -27.560175519013722 22.961908076858144
lfingers 7.12502
lthumb -0.9468258914279144 52.92693152471107
rclavicle -1.9532406170702586e-15 9.067692337241605e-16
rhumerus -29.356507913845824 -19.513140687266404 -77.77950309367618
rradius 24.57760449183675
rwrist 3.0928573664435133
rhand -17.94004454256238 22.403846777751937
rfingers 7.12502
rthumb 8.211954546685984 -7.674051149504665
101
root 0.12839423925305626 17.729297349963723 42.646683589783066 -1.5259963553523486 0.4059771926047233 1.913510792321794
lfemur 11.305692129119723 -3.4649440458452365 -26.983371755153776
ltibia 13.914793803203569
lfoot -11.583917888061876 -0.2896365876681418
ltoes -1.5809743910949035
rfemur -26.750293248688322 5.908609812565025 17.48568306744446
rtibia 15.131485067918572
rfoot -12.272101041837498 -13.250686594313136
rtoes -2.1003412168560875
lowerback 9.83001442075291 -0.6510893135433086 -3.383200192295428
upperback 0.8685784712868736 -1.2531437950814346 1.1639723955089347
thorax -4.48754189505577 -0.5364019844370456 3.391527777914227
lowerneck -17.28916803557531 -2.70211067128094 -3.2274785282990197
upperneck 19.152583416500075 -3.459849210318409 2.199185254421272
head 8.87286198918383 -1.6103544875831863 0.7725359790943772
lclavicle -1.953240616908484e-15 9.067692338715882e-16
lhumerus -22.555795242352467 -5.137076248295074 83.23543832731325
lradius 29.339494797361397
lwrist 7.1118656210474684
lhand -26.94181495952904 24.426272796564085
lfingers 7.12502
lthumb -0.37890170833792725 54.2816207110434
rclavicle -1.953240617073018e-15 9.067692337205484e-16
rhumerus -29.451472561080244 -19.80312059472058 -77.60329175664937
rradius 24.28305520861133
rwrist 3.827649845568808
rhand -17.89563264054012 22.48717268033568
rfingers 7.12502
rthumb 8.235697961811928 -7.6155281747809855
102
root 0.04839968066240863 17.664053604223806 43.19574161097793 -1.5103599549678914 0.5550593112837978 1.7502258365488617
lfemur 12.83837175252983 -4.420177414702845 -26.621640149089302
ltibia 15.974256368716363
lfoot -10.48155336181031 -2.259298136960685
ltoes -5.987456380301473
rfemur -27.648539951460705 3.5945365389625836 19.823747904557234
rtibia 20.71486769636184
rfoot -10.030936500348547 -10.600683309613336
rtoes -3.649967001819428
lowerback 9.637160610439608 -0.7293145620571791 -3.5011406245414367
upperback 0.8303714081119531 -1.3872452468431824 1.2864259503889484
thorax -4.4552515834812265 -0.601761759093171 3.5859990581407994
lowerneck -17.340734632476856 -2.624960720922111 -3.1219918806974487
upperneck 19.281192242180886 -3.3275280895100785 2.037709032363648
head 8.92908546496659 -1.5634835791396704 0.7283886231023016
lclavicle -1.9532406168980077e-15 9.067692338800067e-16
lhumerus -21.912489502342574 -5.658850373788964 83.23850362491409
lradius 30.318551452922218
lwrist 7.523279294103094
lhand -27.05659782523639 24.500389372164864
lfingers 7.12502
lthumb -0.42316271871007416 54.537778999174826
rclavicle -1.9532406170705426e-15 9.06769233721596e-16
rhumerus -29.404879897841308 -19.769556116059096 -77.63617481907114
rradius 24.128810618937468
rwrist 4.243214818127163
rhand -17.798467620084068 22.640237534350515
rfingers 7.12502
rthumb 8.308449938743173 -7.4531617364183065
103
root -0.033453703988821415 17.61608309019143 43.56166425054361 -1.7673244893892677 0.49201511937211473 1.4275105510520785
lfemur 14.215404655202853 -6.076507725148446 -26.077955572509985
ltibia 18.78245657792001
lfoot -8.731966085298064 -4.372149357090589
ltoes -11.639744454569263
rfemur -27.714486905268053 3.033253977884385 21.69002244678719
rtibia 25.917724774819405
rfoot -6.459093903951356 -8.25315021794477
rtoes -3.8192098867894546
lowerback 9.416020142537063 -0.7156517455919388 -3.289120711044796
upperback 0.8056829047076175 -1.4041930000397267 1.4193961388001635
thorax -4.419171312514857 -0.6075226178900557 3.6328608616526914
lowerneck -17.371263845713628 -2.547147268827853 -2.995192561648375
upperneck 19.45033948863169 -3.214471294251541 1.8765889486686733
head 9.002128783402272 -1.525616618561042 0.6830495522062148
lclavicle -1.9532406168888265e-15 9.067692338872035e-16
lhumerus -21.578532103965337 -5.779070596590467 83.25561254870003
lradius 30.883767715216347
lwrist 7.789834501821389
lhand -27.326029082648862 24.65742663255458
lfingers 7.12502
lthumb -0.5271565836598874 54.927988827164846
rclavicle -1.9532406170747015e-15 9.067692337164437e-16
rhumerus -29.240781523841036 -19.67963133508086 -77.87407574857761
rradius 24.03314374997154
rwrist 4.452543732973561
rhand -17.706142377970906 22.759241580370812
rfingers 7.12502
rthumb 8.385641309246562 -7.3335565186462865
104
root -0.11566307385400537 17.535742900461745 44.383254911734085 -2.219926023362782 -0.3006646128093837 0.6314429095586451
lfemur 13.698766724566795 -7.100182961489077 -25.11753181806498
ltibia 24.027010141799355
lfoot -6.37387042157035 -5.923905648080617
ltoes -14.972119376643521
rfemur -27.10572899390864 3.317735828271326 23.0780974160908
rtibia 29.834752444964906
rfoot -3.975359104872063 -5.10336783187995
rtoes -0.7065545258147972
lowerback 9.214885462087883 -0.5564820632922346 -2.6533283265349388
upperback 0.8354924954192038 -1.2089104385793101 1.6480608696895693
thorax -4.367169010743554 -0.5256899055666502 3.5080392681211863
lowerneck -17.37203800847321 -2.487312327339026 -2.861263160528778
upperneck 19.624162207979406 -3.1114988637283147 1.7034737314500827
head 9.082140293758 -1.4889661066853515 0.6246456881939083
lclavicle -1.9532406168716128e-15 9.067692339014497e-16
lhumerus -21.817363527296536 -5.472450052584455 83.36936332238493
lradius 31.1592046910814
lwrist 7.713607023317863
lhand -28.681988717582772 22.190155605094713
lfingers 7.12502
lthumb -1.7160188171820117 52.836853008557746
rclavicle -1.9532406170735127e-15 9.067692337160737e-16
rhumerus -29.06789488872322 -19.357140932248637 -78.20277869806155
rradius 24.00188658832322
rwrist 4.659866622167659
rhand -17.670069369903846 22.686074134394865
rfingers 7.12502
rthumb 8.418522650100947 -7.403900708358554
105
root -0.20345873265427034 17.564969412816716 44.52107405443259 -2.714476613768441 -0.5953151047151692 -0.49242804978673305
lfemur 11.180182696441133 -6.665447668239411 -23.39467317483922
ltibia 31.519973244447797
lfoot -2.196754740133706 -8.653902014916826
ltoes -18.109673312901972
rfemur -25.897345920582932 3.591391498133774 24.61316200886175
rtibia 32.30368911071239
rfoot -2.6454054606233743 -3.138579346804796
rtoes 4.355559957175656
lowerback 9.013833641786183 -0.43419948561400845 -1.6361801929351494
upperback 0.839813341679821 -0.949101294811991 1.9160421007018975
thorax -4.34971638709638 -0.4119241922699922 3.096366464286219
lowerneck -17.326260210941687 -2.458007531578251 -2.727384774802146
upperneck 19.742926494904648 -3.0642696127913513 1.574048129845287
head 9.129838065704323 -1.4747898997653275 0.5793123814359185
lclavicle -1.9532406168672953e-15 9.067692339039571e-16
lhumerus -22.652337294897574 -4.892055359700311 83.57675566914149
lradius 31.216421228555987
lwrist 7.581769458326271
lhand -28.552416936851543 22.485209297458518
lfingers 7.12502
lthumb -1.5874904165135475 53.11694258269836
rclavicle -1.953240617078093e-15 9.067692337104164e-16
rhumerus -28.847830599396826 -18.916279437602746 -78.48595367401657
rradius 23.970523339024563
rwrist 4.5699735834744315
rhand -17.6796658926059 22.402134008437887
rfingers 7.12502
rthumb 8.421271935834735 -7.641207439222982
